<svg version="1.1" id="Layer_1" xmlns="http://www.w3.org/2000/svg" xmlns:xlink="http://www.w3.org/1999/xlink" x="0px" y="0px"
	 width="100%" viewBox="0 0 183 136" enable-background="new 0 0 183 136" xml:space="preserve">
<path fill="#FFFFFF" opacity="1.000000" stroke="none" 
	d="
M95.000000,137.000000 
	C63.333336,137.000000 32.166676,137.000000 1.000008,137.000000 
	C1.000006,91.666679 1.000006,46.333351 1.000003,1.000021 
	C61.999985,1.000014 122.999969,1.000014 183.999969,1.000007 
	C183.999969,46.333313 183.999969,91.666626 183.999985,136.999969 
	C154.500000,137.000000 125.000000,137.000000 95.000000,137.000000 
M64.034927,99.773071 
	C66.054779,98.682770 68.626816,98.050003 69.984703,96.411209 
	C73.265831,92.451309 75.981575,88.022743 78.922615,83.781288 
	C83.258904,77.527695 83.241837,77.356346 77.367714,70.801224 
	C74.844025,74.374535 71.922096,77.628464 70.015343,81.396149 
	C66.097389,89.137901 60.460121,92.345253 51.665115,91.136230 
	C45.909088,90.344963 39.956047,90.986885 33.030743,90.986885 
	C44.271385,74.891541 54.723305,59.925564 65.500511,44.493805 
	C66.854675,46.505814 67.886734,47.983967 68.862885,49.498161 
	C78.604950,64.609871 88.336327,79.728477 98.074043,94.842987 
	C101.660698,100.410042 104.084656,101.164398 111.133430,98.676109 
	C96.114372,75.466309 81.146568,52.335705 65.821091,28.652380 
	C49.260124,52.484261 33.121807,75.707939 16.398638,99.773232 
	C32.862415,99.773232 47.998566,99.773232 64.034927,99.773071 
M138.463516,78.006577 
	C127.952438,61.712666 117.441360,45.418755 106.649673,28.689852 
	C101.382660,36.228508 96.513702,43.154808 91.691078,50.113228 
	C87.685837,55.892277 87.866707,57.008469 93.669388,62.234928 
	C97.825706,56.449169 101.961334,50.692207 106.386070,44.532795 
	C107.734070,46.529686 108.770920,48.008171 109.749535,49.524254 
	C119.487022,64.609650 129.207504,79.706017 138.949326,94.788620 
	C142.587204,100.420898 144.779068,101.110596 151.536697,98.860611 
	C151.439438,98.546707 151.405838,98.192284 151.235596,97.924835 
	C147.129944,91.474396 143.009705,85.033249 138.463516,78.006577 
z"/>
<path fill="#5CB1FF" opacity="1.000000" stroke="none" 
	d="
M63.584824,99.773148 
	C47.998566,99.773232 32.862415,99.773232 16.398638,99.773232 
	C33.121807,75.707939 49.260124,52.484261 65.821091,28.652380 
	C81.146568,52.335705 96.114372,75.466309 111.133430,98.676109 
	C104.084656,101.164398 101.660698,100.410042 98.074043,94.842987 
	C88.336327,79.728477 78.604950,64.609871 68.862885,49.498161 
	C67.886734,47.983967 66.854675,46.505814 65.500511,44.493805 
	C54.723305,59.925564 44.271385,74.891541 33.030743,90.986885 
	C39.956047,90.986885 45.909088,90.344963 51.665115,91.136230 
	C60.460121,92.345253 66.097389,89.137901 70.015343,81.396149 
	C71.922096,77.628464 74.844025,74.374535 77.367714,70.801224 
	C83.241837,77.356346 83.258904,77.527695 78.922615,83.781288 
	C75.981575,88.022743 73.265831,92.451309 69.984703,96.411209 
	C68.626816,98.050003 66.054779,98.682770 63.584824,99.773148 
z"/>
<path fill="#5BB1FF" opacity="1.000000" stroke="none" 
	d="
M138.677795,78.298500 
	C143.009705,85.033249 147.129944,91.474396 151.235596,97.924835 
	C151.405838,98.192284 151.439438,98.546707 151.534485,98.861298 
	C144.779068,101.110596 142.587204,100.420898 138.949326,94.788620 
	C129.207504,79.706017 119.487022,64.609650 109.749535,49.524254 
	C108.770920,48.008171 107.734070,46.529686 106.386070,44.532795 
	C101.961334,50.692207 97.825706,56.449169 93.669388,62.234928 
	C87.866707,57.008469 87.685837,55.892277 91.691078,50.113228 
	C96.513702,43.154808 101.382660,36.228508 106.649673,28.689852 
	C117.441360,45.418755 127.952438,61.712666 138.677795,78.298500 
z"/>
</svg>